<svg width="41" height="38" viewBox="0 0 41 38" fill="none" xmlns="http://www.w3.org/2000/svg">
<path d="M20 0.0996094C31.0457 0.0996248 40 9.05394 40 20.0996C40 25.4667 37.8852 30.3394 34.4443 33.9316V33.4326C34.444 27.5218 24.8208 24.544 20 24.5439C15.1793 24.5439 5.55603 27.5217 5.55566 33.4326V33.9316C2.11479 30.3394 2.81716e-05 25.4667 0 20.0996C0 9.05393 8.95432 0.0996094 20 0.0996094Z" fill="#0293FA"/>
<path d="M17.2188 35.6252L19 24.5886H21.2353L23.1562 35.6252L20.1875 38.0002L17.2188 35.6252Z" fill="#FCFCFD"/>
<path d="M20 11.5C22.4853 11.5 24.5 13.5147 24.5 16C24.5 18.4853 22.4853 20.5 20 20.5C17.5147 20.5 15.5 18.4853 15.5 16C15.5 13.5147 17.5147 11.5 20 11.5Z" stroke="#FCFCFD" stroke-width="3"/>
</svg>
