<svg width="96" height="38" viewBox="0 0 96 38" fill="none" xmlns="http://www.w3.org/2000/svg">
<path d="M20 7C27.732 7.00001 34 13.0507 34 20.5146C34 24.2111 32.4618 27.5601 29.9707 30V29.5244C29.9707 25.5301 23.2728 23.5176 19.918 23.5176C16.563 23.5177 9.86621 25.5302 9.86621 29.5244V29.8389C7.4709 27.4137 6.00002 24.13 6 20.5146C6 13.0507 12.268 7 20 7Z" fill="#0293FA"/>
<path d="M20 13.5C21.933 13.5 23.5 15.067 23.5 17C23.5 18.933 21.933 20.5 20 20.5C18.067 20.5 16.5 18.933 16.5 17C16.5 15.067 18.067 13.5 20 13.5Z" stroke="#FCFCFD" stroke-width="3"/>
<path d="M18 32.2291L19.5 24H21.3824L23 32.2291L20.5 34L18 32.2291Z" fill="#FCFCFD"/>
<path d="M54.1675 23.668C53.6728 23.668 53.2108 23.6073 52.7815 23.486C52.3521 23.3647 51.9695 23.1967 51.6335 22.982C51.2975 22.758 51.0175 22.5107 50.7935 22.24C50.5788 21.9693 50.4388 21.6847 50.3735 21.386L52.2495 20.826C52.3708 21.1433 52.5855 21.4187 52.8935 21.652C53.2015 21.876 53.5888 21.9927 54.0555 22.002C54.5501 22.0113 54.9515 21.904 55.2595 21.68C55.5768 21.456 55.7355 21.1667 55.7355 20.812C55.7355 20.504 55.6095 20.2473 55.3575 20.042C55.1148 19.8273 54.7788 19.664 54.3495 19.552L53.0755 19.216C52.5995 19.0947 52.1795 18.9127 51.8155 18.67C51.4515 18.418 51.1668 18.11 50.9615 17.746C50.7561 17.382 50.6535 16.9573 50.6535 16.472C50.6535 15.548 50.9568 14.8293 51.5635 14.316C52.1795 13.7933 53.0475 13.532 54.1675 13.532C54.7928 13.532 55.3388 13.6253 55.8055 13.812C56.2815 13.9893 56.6781 14.246 56.9955 14.582C57.3128 14.918 57.5555 15.3147 57.7235 15.772L55.8615 16.346C55.7495 16.0287 55.5441 15.758 55.2455 15.534C54.9468 15.31 54.5688 15.198 54.1115 15.198C53.6448 15.198 53.2761 15.3053 53.0055 15.52C52.7441 15.7347 52.6135 16.038 52.6135 16.43C52.6135 16.738 52.7161 16.9807 52.9215 17.158C53.1361 17.3353 53.4255 17.4707 53.7895 17.564L55.0775 17.886C55.9175 18.0913 56.5708 18.46 57.0375 18.992C57.5041 19.524 57.7375 20.1167 57.7375 20.77C57.7375 21.3487 57.5975 21.8573 57.3175 22.296C57.0375 22.7253 56.6315 23.0613 56.0995 23.304C55.5675 23.5467 54.9235 23.668 54.1675 23.668ZM62.2794 23.668C61.5047 23.668 60.9167 23.4767 60.5154 23.094C60.1234 22.7113 59.9274 22.1653 59.9274 21.456V14.316H61.7754V21.05C61.7754 21.3487 61.8407 21.5773 61.9714 21.736C62.102 21.8853 62.2934 21.96 62.5454 21.96C62.6387 21.96 62.7414 21.9413 62.8534 21.904C62.9654 21.8573 63.082 21.792 63.2034 21.708L63.8474 23.094C63.6234 23.262 63.3714 23.3973 63.0914 23.5C62.8207 23.612 62.55 23.668 62.2794 23.668ZM58.7934 18.068V16.5H63.5254V18.068H58.7934ZM69.4131 23.5L69.3571 22.086V19.958C69.3571 19.538 69.3105 19.1787 69.2171 18.88C69.1331 18.5813 68.9931 18.3527 68.7971 18.194C68.6105 18.026 68.3538 17.942 68.0271 17.942C67.7285 17.942 67.4578 18.0073 67.2151 18.138C66.9725 18.2687 66.7671 18.4693 66.5991 18.74L64.9751 18.18C65.1058 17.8813 65.2971 17.592 65.5491 17.312C65.8011 17.0227 66.1278 16.7893 66.5291 16.612C66.9398 16.4253 67.4391 16.332 68.0271 16.332C68.7365 16.332 69.3245 16.4673 69.7911 16.738C70.2671 17.0087 70.6171 17.3913 70.8411 17.886C71.0745 18.3713 71.1865 18.95 71.1771 19.622L71.1351 23.5H69.4131ZM67.4531 23.668C66.6131 23.668 65.9598 23.4813 65.4931 23.108C65.0358 22.7347 64.8071 22.2073 64.8071 21.526C64.8071 20.7793 65.0545 20.2193 65.5491 19.846C66.0531 19.4633 66.7578 19.272 67.6631 19.272H69.4411V20.644H68.3071C67.7005 20.644 67.2805 20.7187 67.0471 20.868C66.8138 21.008 66.6971 21.2087 66.6971 21.47C66.6971 21.6753 66.7905 21.8387 66.9771 21.96C67.1638 22.072 67.4251 22.128 67.7611 22.128C68.0691 22.128 68.3398 22.058 68.5731 21.918C68.8158 21.7687 69.0071 21.582 69.1471 21.358C69.2871 21.1247 69.3571 20.8867 69.3571 20.644H69.8051C69.8051 21.596 69.6231 22.338 69.2591 22.87C68.9045 23.402 68.3025 23.668 67.4531 23.668ZM73.63 23.5V15.8C73.63 15.0533 73.8213 14.4747 74.204 14.064C74.5867 13.644 75.17 13.434 75.954 13.434C76.2247 13.434 76.5093 13.4807 76.808 13.574C77.116 13.6673 77.396 13.7793 77.648 13.91L76.962 15.24C76.8127 15.1653 76.6773 15.1093 76.556 15.072C76.4347 15.0347 76.3227 15.016 76.22 15.016C75.968 15.016 75.7813 15.1047 75.66 15.282C75.5387 15.45 75.478 15.7253 75.478 16.108V23.5H73.63ZM72.468 17.984V16.5H77.2V17.984H72.468ZM79.4061 23.5V15.8C79.4061 15.0533 79.5974 14.4747 79.9801 14.064C80.3628 13.644 80.9461 13.434 81.7301 13.434C82.0008 13.434 82.2854 13.4807 82.5841 13.574C82.8921 13.6673 83.1721 13.7793 83.4241 13.91L82.7381 15.24C82.5888 15.1653 82.4534 15.1093 82.3321 15.072C82.2108 15.0347 82.0988 15.016 81.9961 15.016C81.7441 15.016 81.5574 15.1047 81.4361 15.282C81.3148 15.45 81.2541 15.7253 81.2541 16.108V23.5H79.4061ZM78.2441 17.984V16.5H82.9761V17.984H78.2441Z" fill="#0293FA"/>
<path d="M84.4822 23.5V13.7H86.3302V23.5H84.4822ZM89.6075 26.468C89.3555 26.468 89.0755 26.4167 88.7675 26.314C88.4688 26.2207 88.2028 26.1087 87.9695 25.978L88.6555 24.48C88.8142 24.564 88.9588 24.6293 89.0895 24.676C89.2295 24.732 89.3508 24.76 89.4535 24.76C89.6495 24.76 89.8222 24.704 89.9715 24.592C90.1208 24.4893 90.2422 24.3353 90.3355 24.13L91.1615 22.184L93.3875 16.5H95.4175L92.2395 24.102C92.0435 24.5687 91.8382 24.9793 91.6235 25.334C91.4088 25.698 91.1428 25.978 90.8255 26.174C90.5175 26.37 90.1115 26.468 89.6075 26.468ZM90.6715 23.5L87.4655 16.5H89.4955L91.8335 22.184L92.4355 23.5H90.6715Z" fill="#FCFCFD"/>
</svg>
